<mxfile host="app.diagrams.net" modified="2021-08-05T03:01:41.319Z" agent="5.0 (Windows NT 6.1; Win64; x64) AppleWebKit/537.36 (KHTML, like Gecko) Chrome/92.0.4515.107 Safari/537.36" etag="WQxBd6Bk-FG6QjkFtQHE" version="14.9.4" type="github">
  <diagram id="FVr5aCJg_BbbLuAaQahn" name="第 1 页">
    <mxGraphModel dx="1102" dy="582" grid="1" gridSize="10" guides="1" tooltips="1" connect="1" arrows="1" fold="1" page="1" pageScale="1" pageWidth="827" pageHeight="1169" math="0" shadow="0">
      <root>
        <mxCell id="0" />
        <mxCell id="1" parent="0" />
        <mxCell id="MMVm2K4PWzfBOjIlsPU9-11" value="" style="rounded=0;whiteSpace=wrap;html=1;fontSize=16;dashed=1;" vertex="1" parent="1">
          <mxGeometry x="360" y="90" width="300" height="200" as="geometry" />
        </mxCell>
        <mxCell id="MMVm2K4PWzfBOjIlsPU9-1" value="1" style="rounded=0;whiteSpace=wrap;html=1;fontSize=16;fillColor=#dae8fc;strokeColor=#6c8ebf;" vertex="1" parent="1">
          <mxGeometry x="120" y="160" width="80" height="40" as="geometry" />
        </mxCell>
        <mxCell id="MMVm2K4PWzfBOjIlsPU9-2" value="小林" style="rounded=0;whiteSpace=wrap;html=1;fontSize=16;fillColor=#dae8fc;strokeColor=#6c8ebf;" vertex="1" parent="1">
          <mxGeometry x="200" y="160" width="80" height="40" as="geometry" />
        </mxCell>
        <mxCell id="MMVm2K4PWzfBOjIlsPU9-3" value="1000000" style="rounded=0;whiteSpace=wrap;html=1;fontSize=16;fillColor=#dae8fc;strokeColor=#6c8ebf;" vertex="1" parent="1">
          <mxGeometry x="280" y="160" width="80" height="40" as="geometry" />
        </mxCell>
        <mxCell id="MMVm2K4PWzfBOjIlsPU9-4" value="50" style="rounded=0;whiteSpace=wrap;html=1;fontSize=16;fillColor=#f5f5f5;strokeColor=#666666;fontColor=#333333;" vertex="1" parent="1">
          <mxGeometry x="360" y="160" width="80" height="40" as="geometry" />
        </mxCell>
        <mxCell id="MMVm2K4PWzfBOjIlsPU9-5" value="" style="rounded=0;whiteSpace=wrap;html=1;fontSize=16;fillColor=#f5f5f5;strokeColor=#666666;fontColor=#333333;" vertex="1" parent="1">
          <mxGeometry x="440" y="160" width="80" height="40" as="geometry" />
        </mxCell>
        <mxCell id="MMVm2K4PWzfBOjIlsPU9-6" value="id" style="text;html=1;align=center;verticalAlign=middle;resizable=0;points=[];autosize=1;strokeColor=none;fontSize=16;" vertex="1" parent="1">
          <mxGeometry x="145" y="140" width="30" height="20" as="geometry" />
        </mxCell>
        <mxCell id="MMVm2K4PWzfBOjIlsPU9-7" value="name" style="text;html=1;align=center;verticalAlign=middle;resizable=0;points=[];autosize=1;strokeColor=none;fontSize=16;" vertex="1" parent="1">
          <mxGeometry x="210" y="140" width="60" height="20" as="geometry" />
        </mxCell>
        <mxCell id="MMVm2K4PWzfBOjIlsPU9-8" value="balance" style="text;html=1;align=center;verticalAlign=middle;resizable=0;points=[];autosize=1;strokeColor=none;fontSize=16;" vertex="1" parent="1">
          <mxGeometry x="285" y="140" width="70" height="20" as="geometry" />
        </mxCell>
        <mxCell id="MMVm2K4PWzfBOjIlsPU9-9" value="trx_id" style="text;html=1;align=center;verticalAlign=middle;resizable=0;points=[];autosize=1;strokeColor=none;fontSize=16;" vertex="1" parent="1">
          <mxGeometry x="375" y="140" width="50" height="20" as="geometry" />
        </mxCell>
        <mxCell id="MMVm2K4PWzfBOjIlsPU9-10" value="roll_pointer" style="text;html=1;align=center;verticalAlign=middle;resizable=0;points=[];autosize=1;strokeColor=none;fontSize=16;" vertex="1" parent="1">
          <mxGeometry x="440" y="140" width="90" height="20" as="geometry" />
        </mxCell>
        <mxCell id="MMVm2K4PWzfBOjIlsPU9-12" value="隐藏列" style="text;html=1;align=center;verticalAlign=middle;resizable=0;points=[];autosize=1;strokeColor=none;fontSize=16;" vertex="1" parent="1">
          <mxGeometry x="427.5" y="100" width="60" height="20" as="geometry" />
        </mxCell>
        <mxCell id="MMVm2K4PWzfBOjIlsPU9-14" value="insert undo" style="rounded=1;whiteSpace=wrap;html=1;fontSize=16;fillColor=#ffe6cc;strokeColor=#d79b00;" vertex="1" parent="1">
          <mxGeometry x="510" y="220" width="130" height="30" as="geometry" />
        </mxCell>
        <mxCell id="MMVm2K4PWzfBOjIlsPU9-17" value="" style="ellipse;whiteSpace=wrap;html=1;aspect=fixed;fontSize=16;" vertex="1" parent="1">
          <mxGeometry x="475" y="175" width="10" height="10" as="geometry" />
        </mxCell>
        <mxCell id="MMVm2K4PWzfBOjIlsPU9-15" style="edgeStyle=orthogonalEdgeStyle;rounded=0;orthogonalLoop=1;jettySize=auto;html=1;entryX=0;entryY=0.5;entryDx=0;entryDy=0;fontSize=16;exitX=0.5;exitY=1;exitDx=0;exitDy=0;" edge="1" parent="1" source="MMVm2K4PWzfBOjIlsPU9-17" target="MMVm2K4PWzfBOjIlsPU9-14">
          <mxGeometry relative="1" as="geometry" />
        </mxCell>
      </root>
    </mxGraphModel>
  </diagram>
</mxfile>
